<?xml version="1.0" encoding="UTF-8"?>
<svg xmlns="http://www.w3.org/2000/svg" width="52" height="38" viewBox="0 0 52 38" class="svg replaced-svg">
  <g fill="#B4B4B4" fill-rule="evenodd">
    <path d="M48.728 35.981c.463-.237.85-.93 1.159-2.078.308-1.147.386-3.087.232-5.818-.156-2.732-.658-5.879-1.507-9.441-1.238-5.303-2.552-9.203-3.943-11.697-1.392-2.494-3.093-4.056-5.102-4.69-.928-.238-1.74-.357-2.435-.357-.928 0-2.087.198-3.479.594C30.56 3.286 28.01 3.68 26 3.68c-2.011 0-4.562-.395-7.653-1.187-1.392-.396-2.551-.594-3.479-.594-.696 0-1.507.119-2.435.356-2.011.635-3.71 2.197-5.102 4.69-1.392 2.495-2.707 6.395-3.943 11.698-.851 3.562-1.353 6.71-1.507 9.44-.156 2.732-.078 4.672.232 5.82.308 1.148.696 1.84 1.16 2.077.154.08.385.119.695.119.772 0 1.662-.475 2.667-1.425 1.236-1.108 2.473-2.453 3.71-4.037 1.7-2.216 3.402-3.563 5.103-4.038 1.313-.395 4.366-.594 9.16-.594h2.784c4.792 0 7.845.199 9.16.594 1.7.475 3.4 1.822 5.102 4.038 1.236 1.584 2.473 2.93 3.71 4.037 1.005.95 1.894 1.425 2.668 1.425.308 0 .54-.039.696-.119m1.623-17.812c1.236 5.225 1.778 9.6 1.623 13.122-.156 3.523-.967 5.64-2.435 6.353a3.262 3.262 0 0 1-1.507.356c-1.933 0-4.562-2.058-7.885-6.175-1.47-1.9-2.823-3.028-4.059-3.384-1.237-.356-4.136-.535-8.696-.535h-2.784c-4.562 0-7.46.179-8.696.535-1.238.356-2.591 1.484-4.059 3.384C8.528 35.942 5.9 38 3.968 38a3.257 3.257 0 0 1-1.507-.356C.99 36.93.18 34.814.026 31.29c-.155-3.522.386-7.897 1.623-13.122C2.963 12.629 4.374 8.472 5.881 5.7 7.39 2.93 9.378 1.187 11.853.475A10.016 10.016 0 0 1 14.868 0c.85 0 2.395.297 4.638.89 2.242.595 4.407.891 6.494.891 2.087 0 4.25-.296 6.493-.89C34.735.297 36.28 0 37.132 0c1.004 0 2.01.16 3.015.475 2.473.712 4.464 2.455 5.972 5.225 1.507 2.772 2.917 6.928 4.232 12.469"></path>
    <path d="M50.351 18.169c1.236 5.225 1.778 9.6 1.623 13.122-.156 3.523-.967 5.64-2.435 6.353a3.262 3.262 0 0 1-1.507.356c-1.933 0-4.562-2.058-7.885-6.175-1.47-1.9-2.823-3.028-4.059-3.384-1.237-.356-4.136-.535-8.696-.535h-2.784c-4.562 0-7.46.179-8.696.535-1.238.356-2.591 1.484-4.059 3.384C8.528 35.942 5.9 38 3.968 38a3.257 3.257 0 0 1-1.507-.356C.99 36.93.18 34.814.026 31.29c-.155-3.522.386-7.897 1.623-13.122C2.963 12.629 4.374 8.472 5.881 5.7 7.39 2.93 9.378 1.187 11.853.475A10.016 10.016 0 0 1 14.868 0c.85 0 2.395.297 4.638.89 2.242.595 4.407.891 6.494.891 2.087 0 4.25-.296 6.493-.89C34.735.297 36.28 0 37.132 0c1.004 0 2.01.16 3.015.475 2.473.712 4.464 2.455 5.972 5.225 1.507 2.772 2.917 6.928 4.232 12.469zm-41.57-6.353c-.89.91-1.334 2.039-1.334 3.384 0 1.347.444 2.475 1.333 3.384.888.911 1.952 1.366 3.189 1.366 1.236 0 2.3-.455 3.19-1.366.887-.909 1.333-2.037 1.333-3.384 0-1.345-.446-2.473-1.334-3.384-.89-.91-1.953-1.366-3.189-1.366-1.237 0-2.3.456-3.189 1.366zm.985 3.384c0-1.503.734-2.256 2.203-2.256 1.468 0 2.203.753 2.203 2.256 0 1.505-.735 2.256-2.203 2.256-1.47 0-2.203-.751-2.203-2.256zm30.845-1.663c-.464.476-.696 1.03-.696 1.663 0 .635.232 1.187.696 1.663.463.475 1.003.712 1.623.712.618 0 1.16-.237 1.624-.712.463-.476.695-1.028.695-1.663 0-.633-.232-1.187-.695-1.663-.464-.475-1.006-.712-1.624-.712-.62 0-1.16.238-1.623.712zm-5.103 5.226c-.463.474-.695 1.03-.695 1.662 0 .635.232 1.188.695 1.662.464.476 1.004.713 1.624.713.618 0 1.16-.238 1.623-.713.464-.474.696-1.027.696-1.662 0-.633-.232-1.188-.696-1.662-.464-.476-1.005-.713-1.623-.713-.62 0-1.16.237-1.624.713zm0-10.45c-.463.474-.695 1.03-.695 1.662 0 .635.232 1.187.695 1.662.464.475 1.004.713 1.624.713.618 0 1.16-.238 1.623-.713.464-.475.696-1.027.696-1.662 0-.633-.232-1.188-.696-1.662-.464-.475-1.005-.713-1.623-.713-.62 0-1.16.238-1.624.713zm-5.102 5.224c-.463.476-.695 1.03-.695 1.663 0 .635.232 1.187.695 1.663.464.475 1.004.712 1.624.712.618 0 1.16-.237 1.623-.712.464-.476.696-1.028.696-1.663 0-.633-.232-1.187-.696-1.663-.464-.475-1.005-.712-1.623-.712-.62 0-1.16.238-1.624.712z"></path>
  </g>
</svg>