<?xml version="1.0" encoding="UTF-8"?>
<svg width="200px" height="200px" viewBox="0 0 200 200" version="1.1" xmlns="http://www.w3.org/2000/svg" xmlns:xlink="http://www.w3.org/1999/xlink">
    <!-- Generator: Sketch 48.1 (47250) - http://www.bohemiancoding.com/sketch -->
    <title>Tasks and games</title>
    <desc>Created with Sketch.</desc>
    <defs>
        <linearGradient x1="99.9770807%" y1="12.4322887%" x2="50%" y2="100%" id="linearGradient-1">
            <stop stop-color="#52B6BB" offset="0.045838648%"></stop>
            <stop stop-color="#0B8BC4" offset="100%"></stop>
        </linearGradient>
        <path d="M123.7501,87.2168 L8.1661,87.2168 C6.6061,87.2168 5.3311,85.9418 5.3311,84.3818 L5.3311,20.8628 C5.3311,19.3038 6.6061,18.0278 8.1661,18.0278 L123.7501,18.0278 C125.3101,18.0278 126.5851,19.3038 126.5851,20.8628 L126.5851,84.3818 C126.5851,85.9418 125.3101,87.2168 123.7501,87.2168" id="path-2"></path>
        <filter x="-19.4%" y="-26.7%" width="138.8%" height="167.9%" filterUnits="objectBoundingBox" id="filter-3">
            <feOffset dx="0" dy="5" in="SourceAlpha" result="shadowOffsetOuter1"></feOffset>
            <feGaussianBlur stdDeviation="7" in="shadowOffsetOuter1" result="shadowBlurOuter1"></feGaussianBlur>
            <feColorMatrix values="0 0 0 0 0.447855496   0 0 0 0 0.658383041   0 0 0 0 0.723719175  0 0 0 0.498924366 0" type="matrix" in="shadowBlurOuter1"></feColorMatrix>
        </filter>
        <path d="M0.539,25.353 C0.539,39.125 11.704,50.289 25.477,50.289 C39.248,50.289 50.413,39.125 50.413,25.353 C50.413,11.58 39.248,0.415 25.477,0.415 C11.704,0.415 0.539,11.58 0.539,25.353" id="path-4"></path>
        <path d="M0.539,25.353 C0.539,39.125 11.704,50.289 25.477,50.289 C39.248,50.289 50.413,39.125 50.413,25.353 C50.413,11.58 39.248,0.415 25.477,0.415 C11.704,0.415 0.539,11.58 0.539,25.353" id="path-6"></path>
        <path d="M0.539,25.353 C0.539,39.125 11.704,50.289 25.477,50.289 C39.248,50.289 50.413,39.125 50.413,25.353 C50.413,11.58 39.248,0.415 25.477,0.415 C11.704,0.415 0.539,11.58 0.539,25.353" id="path-8"></path>
        <path d="M0.539,25.353 C0.539,39.125 11.704,50.289 25.477,50.289 C39.248,50.289 50.413,39.125 50.413,25.353 C50.413,11.58 39.248,0.415 25.477,0.415 C11.704,0.415 0.539,11.58 0.539,25.353" id="path-10"></path>
        <path d="M0.254,25.943 C0.254,40.255 11.857,51.856 26.168,51.856 C40.48,51.856 52.083,40.255 52.083,25.943 C52.083,11.63 40.48,0.027 26.168,0.027 C11.857,0.027 0.254,11.63 0.254,25.943" id="path-12"></path>
        <path d="M0.254,25.943 C0.254,40.255 11.857,51.856 26.168,51.856 C40.48,51.856 52.083,40.255 52.083,25.943 C52.083,11.63 40.48,0.027 26.168,0.027 C11.857,0.027 0.254,11.63 0.254,25.943" id="path-14"></path>
        <path d="M0.254,25.943 C0.254,40.255 11.857,51.856 26.168,51.856 C40.48,51.856 52.083,40.255 52.083,25.943 C52.083,11.63 40.48,0.027 26.168,0.027 C11.857,0.027 0.254,11.63 0.254,25.943" id="path-16"></path>
        <path d="M0.254,25.943 C0.254,40.255 11.857,51.856 26.168,51.856 C40.48,51.856 52.083,40.255 52.083,25.943 C52.083,11.63 40.48,0.027 26.168,0.027 C11.857,0.027 0.254,11.63 0.254,25.943" id="path-18"></path>
        <path d="M0.254,25.943 C0.254,40.255 11.857,51.856 26.168,51.856 C40.48,51.856 52.083,40.255 52.083,25.943 C52.083,11.63 40.48,0.027 26.168,0.027 C11.857,0.027 0.254,11.63 0.254,25.943" id="path-20"></path>
        <path d="M0.254,25.943 C0.254,40.255 11.857,51.856 26.168,51.856 C40.48,51.856 52.083,40.255 52.083,25.943 C52.083,11.63 40.48,0.027 26.168,0.027 C11.857,0.027 0.254,11.63 0.254,25.943" id="path-22"></path>
        <polygon id="path-24" points="0.6984 0.051 95.792 0.051 95.792 31 0.6984 31"></polygon>
        <filter x="-24.7%" y="-59.8%" width="149.4%" height="251.9%" filterUnits="objectBoundingBox" id="filter-26">
            <feOffset dx="0" dy="5" in="SourceAlpha" result="shadowOffsetOuter1"></feOffset>
            <feGaussianBlur stdDeviation="7" in="shadowOffsetOuter1" result="shadowBlurOuter1"></feGaussianBlur>
            <feColorMatrix values="0 0 0 0 0.447855496   0 0 0 0 0.658383041   0 0 0 0 0.723719175  0 0 0 0.498924366 0" type="matrix" in="shadowBlurOuter1"></feColorMatrix>
        </filter>
    </defs>
    <g id="Лендинг-перевод" stroke="none" stroke-width="1" fill="none" fill-rule="evenodd" transform="translate(-725.000000, -711.000000)">
        <g id="Tasks-and-games" transform="translate(725.000000, 711.000000)">
            <rect id="Rectangle-43-Copy-5" fill="#FFFFFF" x="0" y="0" width="200" height="200"></rect>
            <g id="Page-1" transform="translate(34.000000, 30.000000)">
                <g id="Group-11" transform="translate(0.000000, 15.004000)">
                    <path d="M120.8595,60.21 C120.8595,93.458 93.9075,120.41 60.6595,120.41 C27.4125,120.41 0.4605,93.458 0.4605,60.21 C0.4605,26.963 27.4125,0.011 60.6595,0.011 C93.9075,0.011 120.8595,26.963 120.8595,60.21" id="Fill-1" fill="url(#linearGradient-1)"></path>
                    <path d="M113.491,93.698 L2.835,93.698 C1.275,93.698 0,92.423 0,90.863 L0,23.834 C0,22.275 1.275,21 2.835,21 L113.491,21 C115.05,21 116.325,22.275 116.325,23.834 L116.325,90.863 C116.325,92.423 115.05,93.698 113.491,93.698" id="Fill-3" fill="url(#linearGradient-1)"></path>
                    <g id="Fill-5">
                        <use fill="black" fill-opacity="1" filter="url(#filter-3)" xlink:href="#path-2"></use>
                        <use fill="#F4F7FB" fill-rule="evenodd" xlink:href="#path-2"></use>
                    </g>
                    <path d="M125.5704,18.0029 C126.9984,18.0029 128.1674,19.1059 128.1674,20.4519 L128.1674,84.7419 C128.1674,86.0899 126.9984,87.1909 125.5704,87.1909 L67.5404,87.1909 L67.5404,18.0029" id="Fill-7" fill="#EA5241"></path>
                    <path d="M122.4132,51.3526 C122.4132,65.1246 111.2482,76.2896 97.4762,76.2896 C83.7042,76.2896 72.5392,65.1246 72.5392,51.3526 C72.5392,37.5806 83.7042,26.4156 97.4762,26.4156 C111.2482,26.4156 122.4132,37.5806 122.4132,51.3526" id="Fill-9" fill="#98D7E2"></path>
                </g>
                <g id="Group-24" transform="translate(72.000000, 41.004000)">
                    <g id="Group-14">
                        <mask id="mask-5" fill="white">
                            <use xlink:href="#path-4"></use>
                        </mask>
                        <g id="Clip-13"></g>
                        <path d="M30.5479,34.4961 L20.0009,34.4961 C15.9509,34.4961 12.6369,31.1831 12.6369,27.1321 L12.6369,26.3431 C12.6369,22.2931 15.9509,18.9781 20.0009,18.9781 L30.5479,18.9781 C34.5979,18.9781 37.9109,22.2931 37.9109,26.3431 L37.9109,27.1321 C37.9109,31.1831 34.5979,34.4961 30.5479,34.4961" id="Fill-12" fill="#05A1C5" mask="url(#mask-5)"></path>
                    </g>
                    <g id="Group-17">
                        <mask id="mask-7" fill="white">
                            <use xlink:href="#path-6"></use>
                        </mask>
                        <g id="Clip-16"></g>
                        <path d="M27.7335,24.4776 L22.8155,24.4776 C18.9535,24.4776 15.7945,21.3186 15.7945,17.4566 L15.7945,12.6496 C15.7945,8.7886 18.9535,5.6286 22.8155,5.6286 L27.7335,5.6286 C31.5945,5.6286 34.7545,8.7886 34.7545,12.6496 L34.7545,17.4566 C34.7545,21.3186 31.5945,24.4776 27.7335,24.4776" id="Fill-15" fill="#05A1C5" mask="url(#mask-7)"></path>
                    </g>
                    <g id="Group-20">
                        <mask id="mask-9" fill="white">
                            <use xlink:href="#path-8"></use>
                        </mask>
                        <g id="Clip-19"></g>
                        <path d="M48.7618,53.3731 L38.3248,30.9761 C37.5868,29.3911 35.8058,28.6171 34.1708,29.0701 L14.8388,29.0701 C13.4848,29.0701 12.3218,29.9151 11.8398,31.1021 C11.6198,31.3611 11.4238,31.6441 11.2828,31.9721 L1.5248,54.6731 C0.7548,56.4621 1.5898,58.5561 3.3798,59.3251 L4.3038,59.7221 C6.0938,60.4911 8.1868,59.6561 8.9558,57.8671 L16.0138,41.4481 L16.0138,61.8231 C16.0138,64.0831 17.8638,65.9331 20.1228,65.9331 L30.8298,65.9331 C33.0898,65.9331 34.9388,64.0831 34.9388,61.8231 L34.9388,42.8591 L41.4298,56.7901 C42.2518,58.5561 44.3688,59.3271 46.1348,58.5041 L47.0468,58.0791 C48.8128,57.2571 49.5838,55.1391 48.7618,53.3731" id="Fill-18" fill="#1164A0" mask="url(#mask-9)"></path>
                    </g>
                    <g id="Group-23">
                        <mask id="mask-11" fill="white">
                            <use xlink:href="#path-10"></use>
                        </mask>
                        <g id="Clip-22"></g>
                        <path d="M25.295,33.7754 C22.759,33.7754 20.684,31.4964 20.684,28.7104 L20.684,11.1294 L29.905,15.4744 L29.905,28.7104 C29.905,31.4964 27.83,33.7754 25.295,33.7754" id="Fill-21" fill="#F8C7A5" mask="url(#mask-11)"></path>
                    </g>
                </g>
                <path d="M63.0831,66.9464 C63.0831,81.2594 51.4801,92.8604 37.1681,92.8604 C22.8561,92.8604 11.2541,81.2594 11.2541,66.9464 C11.2541,52.6334 22.8561,41.0314 37.1681,41.0314 C51.4801,41.0314 63.0831,52.6334 63.0831,66.9464" id="Fill-25" fill="#98D7E2"></path>
                <g id="Group-45" transform="translate(11.000000, 41.004000)">
                    <g id="Group-29">
                        <mask id="mask-13" fill="white">
                            <use xlink:href="#path-12"></use>
                        </mask>
                        <g id="Clip-28"></g>
                        <path d="M31.4259,68.1133 L20.9099,68.1133 C18.3949,68.1133 16.3349,66.0543 16.3349,63.5383 L16.3349,35.4073 C16.3349,32.8903 18.3949,30.8323 20.9099,30.8323 L31.4259,30.8323 C33.9429,30.8323 36.0019,32.8903 36.0019,35.4073 L36.0019,63.5383 C36.0019,66.0543 33.9429,68.1133 31.4259,68.1133" id="Fill-27" fill="#05A1C5" mask="url(#mask-13)"></path>
                    </g>
                    <g id="Group-32">
                        <mask id="mask-15" fill="white">
                            <use xlink:href="#path-14"></use>
                        </mask>
                        <g id="Clip-31"></g>
                        <path d="M48.3458,60.0635 L47.8758,60.2825 C45.9098,61.1985 43.5518,60.3395 42.6358,58.3735 L32.0128,35.5755 C31.0968,33.6095 31.9558,31.2515 33.9218,30.3345 L34.3928,30.1165 C36.3588,29.2005 38.7168,30.0595 39.6328,32.0255 L50.2548,54.8235 C51.1708,56.7895 50.3128,59.1475 48.3458,60.0635" id="Fill-30" fill="#05A1C5" mask="url(#mask-15)"></path>
                    </g>
                    <g id="Group-35">
                        <mask id="mask-17" fill="white">
                            <use xlink:href="#path-16"></use>
                        </mask>
                        <g id="Clip-34"></g>
                        <path d="M3.7921,60.6221 L3.3151,60.4171 C1.3221,59.5601 0.3931,57.2291 1.2491,55.2371 L11.1821,32.1301 C12.0391,30.1381 14.3701,29.2081 16.3621,30.0641 L16.8391,30.2691 C18.8321,31.1261 19.7621,33.4571 18.9051,35.4501 L8.9721,58.5571 C8.1151,60.5491 5.7841,61.4781 3.7921,60.6221" id="Fill-33" fill="#05A1C5" mask="url(#mask-17)"></path>
                    </g>
                    <g id="Group-38">
                        <mask id="mask-19" fill="white">
                            <use xlink:href="#path-18"></use>
                        </mask>
                        <g id="Clip-37"></g>
                        <path d="M39.5919,33.4121 L39.5919,34.6051 C39.5919,36.5891 37.9689,38.2121 35.9859,38.2121 L15.3559,38.2121 C13.3709,38.2121 11.7489,36.5891 11.7489,34.6051 L11.7489,33.4121 C11.7489,31.4291 13.3709,29.8061 15.3559,29.8061 L35.9859,29.8061 C37.9689,29.8061 39.5919,31.4291 39.5919,33.4121" id="Fill-36" fill="#05A1C5" mask="url(#mask-19)"></path>
                    </g>
                    <g id="Group-41">
                        <mask id="mask-21" fill="white">
                            <use xlink:href="#path-20"></use>
                        </mask>
                        <g id="Clip-40"></g>
                        <path d="M30.2735,20.4102 L21.2245,20.4102 C19.1765,20.4102 17.5015,18.7352 17.5015,16.6872 L17.5015,12.4732 C17.5015,10.4262 19.1765,8.7502 21.2245,8.7502 L30.2735,8.7502 C32.3215,8.7502 33.9965,10.4262 33.9965,12.4732 L33.9965,16.6872 C33.9965,18.7352 32.3215,20.4102 30.2735,20.4102" id="Fill-39" fill="#1164A0" mask="url(#mask-21)"></path>
                    </g>
                    <g id="Group-44">
                        <mask id="mask-23" fill="white">
                            <use xlink:href="#path-22"></use>
                        </mask>
                        <g id="Clip-43"></g>
                        <path d="M25.7696,34.6953 C23.1346,34.6953 20.9786,32.3273 20.9786,29.4313 L20.9786,11.1623 C20.9786,11.1623 21.3396,7.5513 26.1676,7.5513 C30.7986,7.5513 30.5616,11.1623 30.5616,11.1623 L30.5616,29.4313 C30.5616,32.3273 28.4056,34.6953 25.7696,34.6953" id="Fill-42" fill="#F8C7A5" mask="url(#mask-23)"></path>
                    </g>
                </g>
                <g id="Group-53" transform="translate(30.000000, 0.004000)">
                    <path d="M9.4073,69.8662 L3.5723,69.8662 C1.9423,69.8662 0.6083,68.5332 0.6083,66.9032 L0.6083,62.8362 C0.6083,61.2062 1.9423,59.8732 3.5723,59.8732 L9.4073,59.8732 C11.0373,59.8732 12.3703,61.2062 12.3703,62.8362 L12.3703,66.9032 C12.3703,68.5332 11.0373,69.8662 9.4073,69.8662" id="Fill-46" fill="#1164A0"></path>
                    <g id="Group-50" transform="translate(6.000000, 109.000000)">
                        <mask id="mask-25" fill="white">
                            <use xlink:href="#path-24"></use>
                        </mask>
                        <g id="Clip-49">
                            <use fill="black" fill-opacity="1" filter="url(#filter-26)" xlink:href="#path-24"></use>
                            <use fill="#F4F7FB" fill-rule="evenodd" xlink:href="#path-24"></use>
                        </g>
                    </g>
                    <path d="M59.0636,22.4541 C59.0636,34.3051 49.4566,43.9111 37.6056,43.9111 C25.7546,43.9111 16.1476,34.3051 16.1476,22.4541 C16.1476,10.6031 25.7546,0.9961 37.6056,0.9961 C49.4566,0.9961 59.0636,10.6031 59.0636,22.4541" id="Fill-51" fill="url(#linearGradient-1)"></path>
                </g>
                <text id="VS" font-family="MuseoSansCyrl-700, Museo Sans Cyrl" font-size="24.08" font-weight="500" letter-spacing="-0.008" fill="#FEFEFE">
                    <tspan x="53.0977" y="28.9884735">VS</tspan>
                </text>
                <g id="Group-66" transform="translate(28.000000, 47.004000)">
                    <path d="M23.5157,77.5049 C23.5157,75.4649 24.2037,73.7489 25.5797,72.3579 C26.9557,70.9689 28.6787,70.2749 30.7467,70.2749 C32.8547,70.2749 34.5927,70.8669 35.9627,72.0529 L34.6997,73.9499 C34.2647,73.5549 33.6977,73.2319 32.9987,72.9819 C32.3017,72.7309 31.6227,72.6059 30.9647,72.6059 C29.4497,72.6059 28.2667,73.0679 27.4177,73.9879 C26.5677,74.9109 26.1427,76.0569 26.1427,77.4269 C26.1427,78.9149 26.5917,80.1249 27.4877,81.0529 C28.3827,81.9819 29.5017,82.4449 30.8467,82.4449 C32.1757,82.4449 33.3487,81.9579 34.3637,80.9839 L34.3637,79.3429 L32.2097,79.3429 L32.2097,77.1499 L36.6547,77.1499 L36.6547,84.5399 L34.4827,84.5399 L34.4827,83.8679 L34.5007,83.2759 L34.4627,83.2759 C34.0007,83.7239 33.4047,84.0849 32.6727,84.3609 C31.9437,84.6379 31.1827,84.7759 30.3917,84.7759 C28.4807,84.7759 26.8587,84.1029 25.5207,82.7519 C24.1847,81.4009 23.5157,79.6529 23.5157,77.5049" id="Fill-54" fill="#238DB2"></path>
                    <path d="M42.3448,78.8692 L45.9998,78.8692 L44.7558,75.1152 L44.2018,72.9412 L44.1618,72.9412 C43.9508,73.8632 43.7688,74.5882 43.6098,75.1152 L42.3448,78.8692 Z M37.9178,84.5402 L42.8388,70.5122 L45.5258,70.5122 L50.4468,84.5402 L47.8378,84.5402 L46.6318,80.9442 L41.7128,80.9442 L40.5268,84.5402 L37.9178,84.5402 Z" id="Fill-56" fill="#238DB2"></path>
                    <path d="M51.7696,84.5401 L52.9156,70.5121 L55.6226,70.5121 L58.3876,77.4471 L59.0816,79.5021 L59.1206,79.5021 C59.3706,78.6861 59.6006,78.0001 59.8116,77.4471 L62.5786,70.5121 L65.2856,70.5121 L66.4316,84.5401 L63.8826,84.5401 L63.3086,76.6961 C63.2836,76.4201 63.2696,76.1001 63.2696,75.7381 C63.2696,75.3741 63.2766,75.0821 63.2896,74.8581 L63.2896,74.5221 L63.2486,74.5221 C62.9466,75.4311 62.6896,76.1561 62.4786,76.6961 L60.2076,82.1301 L57.9946,82.1301 L55.7216,76.6961 L54.9506,74.5031 L54.9116,74.5031 C54.9506,75.3461 54.9436,76.0771 54.8906,76.6961 L54.3186,84.5401 L51.7696,84.5401 Z" id="Fill-58" fill="#238DB2"></path>
                    <polygon id="Fill-60" fill="#238DB2" points="69.295 84.5401 69.295 70.5121 77.692 70.5121 77.692 72.7041 71.844 72.7041 71.844 76.3801 76.566 76.3801 76.566 78.5731 71.844 78.5731 71.844 82.3471 78.009 82.3471 78.009 84.5401"></polygon>
                    <path d="M79.5108,82.8613 L80.8938,80.9443 C81.3558,81.3533 81.8988,81.7023 82.5248,81.9913 C83.1498,82.2813 83.7658,82.4253 84.3718,82.4253 C85.0038,82.4253 85.5038,82.2773 85.8738,81.9813 C86.2418,81.6843 86.4268,81.2993 86.4268,80.8253 C86.4268,80.3393 86.2008,79.9173 85.7548,79.5603 C85.3058,79.2053 84.7638,78.8963 84.1238,78.6323 C83.4858,78.3683 82.8438,78.0793 82.1978,77.7623 C81.5528,77.4473 81.0058,76.9993 80.5578,76.4203 C80.1108,75.8393 79.8868,75.1473 79.8868,74.3433 C79.8868,73.1323 80.3368,72.1503 81.2398,71.3993 C82.1418,70.6503 83.2848,70.2743 84.6678,70.2743 C86.3148,70.2743 87.6848,70.7743 88.7778,71.7753 L87.6528,73.8503 C87.2568,73.4953 86.7798,73.2023 86.2198,72.9703 C85.6598,72.7403 85.1098,72.6253 84.5698,72.6253 C83.9228,72.6253 83.4068,72.7713 83.0178,73.0603 C82.6288,73.3493 82.4358,73.7393 82.4358,74.2263 C82.4358,74.7013 82.6588,75.1093 83.1068,75.4523 C83.5548,75.7943 84.0988,76.0903 84.7368,76.3393 C85.3768,76.5903 86.0188,76.8703 86.6628,77.1803 C87.3098,77.4893 87.8568,77.9343 88.3038,78.5133 C88.7518,79.0933 88.9758,79.7983 88.9758,80.6283 C88.9758,81.8123 88.5608,82.8013 87.7308,83.5913 C86.9018,84.3823 85.7608,84.7763 84.3128,84.7763 C83.4168,84.7763 82.5468,84.6123 81.7038,84.2833 C80.8618,83.9553 80.1298,83.4803 79.5108,82.8613" id="Fill-62" fill="#238DB2"></path>
                    <path d="M6.1495,7.6631 L0.4275,7.6631 L0.4275,4.9171 C0.4275,2.7051 2.4305,0.9111 4.9005,0.9111 L9.8155,0.9111 C13.8155,0.9111 14.5875,3.8061 14.5875,3.8061 L13.8025,3.6921 C13.8025,5.8521 11.1485,7.4801 6.1495,7.6631" id="Fill-64" fill="#1164A0"></path>
                </g>
            </g>
        </g>
    </g>
</svg>