<svg xmlns="http://www.w3.org/2000/svg" width="381" height="304" viewBox="0 0 381 304">
    <g fill="#FFF" fill-rule="evenodd">
        <path d="M329.296 134c-5.504-6.896-15.52-8.016-22.4-2.56l-60.8 48 19.824 25.104 33.248-26.256C290.384 231.36 244.304 272 188.8 272c-39.856 0-77.04-21.456-97.024-56.016L64.08 232.016C89.776 276.416 137.552 304 188.8 304c70.368 0 128.992-50.768 141.456-117.568L355.504 218l24.992-19.984-51.2-64.016zM188.8 0C119.056 0 60.768 49.856 47.616 115.776L25.6 86.432 0 105.632l48 64c3.136 4.192 7.952 6.4 12.816 6.4a15.94 15.94 0 0 0 9.584-3.2l64-48-19.2-25.6-36.96 27.728C86.496 73.28 132.848 32 188.8 32c39.872 0 77.056 21.488 97.04 56.064l27.696-16.016C287.856 27.616 240.064 0 188.8 0"/>
    </g>
</svg>
