<svg xmlns="http://www.w3.org/2000/svg" width="34" height="24" viewBox="0 0 34 24">
    <g fill="none" fill-rule="evenodd" stroke="#EFEFF4" stroke-width="2">
        <path d="M23.786 22.96c-3.086.106-4.246-.91-4.676-1.772-2.375.059-5.29-.132-8.168-.532-.443 1.214-1.694 2.025-3.363 2.082a4.663 4.663 0 0 1-1.502-.189c-.347-.105-1.267-.386-1.473-1.222-.185-.747.294-1.297.773-1.78-.823.02-1.744.104-2.83.272A.966.966 0 1 1 1.5 18.513c.946-2.417 3.901-3.084 7.323-3.857 2.665-.602 5.683-1.283 8.467-2.857 4.356-2.465 4.936-4.285 5.497-6.045.23-.722.469-1.47.94-2.22.937-1.491 2.19-1.84 3.075-1.87 1.492-.052 3.109.768 4.32 2.193 1.02 1.196 1.435 2.857 1.11 4.44-.247 1.214-.895 2.16-1.774 2.6a4.263 4.263 0 0 1-1.756.453 3.759 3.759 0 0 1-2.031-.497c-1.208 1.277-1.739 2.686-2.25 4.055-.202.532-.39 1.037-.616 1.53-.016 1.243.803 2.306 1.466 3.168.617.802 1.2 1.558.806 2.394-.373.789-1.322.927-2.29.96z"/>
        <path d="M2.729 15.688a.963.963 0 0 1-.897-.607C-.296 9.759 1.727 4.84 7.115 2.249 8.835 1.42 10.618 1 12.409 1c4.74 0 8.66 2.958 9.573 5.696.09.268.058.56-.087.802-3.225 5.372-15.503 8.19-19.166 8.19z"/>
    </g>
</svg>
