<svg width="1263" height="626" xmlns="http://www.w3.org/2000/svg">
  <g fill="none" fill-rule="evenodd">
    <path d="M401.772 65.173c-65.105 77.418-38.646 195.303-115.357 266.939-76.71 71.636-239.59 20.058-273.96 132.739-34.372 112.68 68.154 133.91 316.84 151.354 248.686 17.445 624.815 10.384 766.16-11.667 141.343-22.052 181.703-43.114 162.875-130.754-18.827-87.64-117.813-92.828-172.183-121.614-54.37-28.787-55.88-146.08-220.137-154.197-164.258-8.117-113.05-100.155-205.696-159.185-92.645-59.03-193.437-51.033-258.542 26.385z" fill="#498846" opacity=".876"/>
    <g transform="translate(0 51)">
      <circle fill="#E45357" cx="1114.5" cy="420.5" r="4.5"/>
      <circle fill="#1CAAEC" cx="4.5" cy="448.5" r="4.5"/>
      <circle stroke="#FEF1C3" stroke-width="3" cx="957.5" cy="351.5" r="17.5"/>
      <circle stroke="#FEF1C3" stroke-width="3" cx="142.5" cy="508.5" r="14.5"/>
      <path d="M1166.245 505.73l-11.707 4.806-1.538-3.747 11.707-4.805-11.677-4.881 1.562-3.737 11.678 4.88-4.806-11.708 3.747-1.538 4.806 11.707 4.88-11.675 3.737 1.562-4.88 11.676 11.708-4.805 1.538 3.747-11.708 4.805 11.676 4.88-1.562 3.738-11.676-4.88 4.806 11.707-3.748 1.538-4.805-11.708-4.88 11.676-3.738-1.562 4.88-11.675z" fill="#79C257" fill-rule="nonzero"/>
      <path d="M1246.791 396.195l-6.886 2.826-.905-2.204 6.887-2.827-6.87-2.87.92-2.199 6.869 2.871-2.827-6.887 2.204-.905 2.827 6.887 2.87-6.868 2.199.918-2.871 6.87 6.887-2.828.905 2.204-6.887 2.827 6.868 2.87-.919 2.2-6.868-2.871 2.827 6.886-2.204.905-2.827-6.887-2.87 6.868-2.2-.918 2.871-6.868zM392.518 543.463l-9.297 3.816-1.221-2.976 9.297-3.816-9.273-3.876 1.24-2.968 9.274 3.876-3.816-9.298 2.975-1.221 3.816 9.297 3.876-9.272 2.968 1.24-3.876 9.273 9.298-3.816 1.221 2.976-9.298 3.816 9.273 3.875-1.24 2.968-9.273-3.875 3.816 9.297-2.975 1.221-3.817-9.297-3.875 9.272-2.968-1.24 3.875-9.272z" fill="#7ED321" fill-rule="nonzero"/>
      <path d="M356.24 435.161H367v4.064h-10.76V451h-4.063v-11.775H341v-4.064h11.177V425h4.064v10.161z" fill="#EFC652" fill-rule="nonzero"/>
      <path d="M918.24 538.161H929v4.064h-10.76V554h-4.063v-11.775H903v-4.064h11.177V528h4.064v10.161z" fill="#9013FE" fill-rule="nonzero"/>
      <path d="M121.24 336.161H132v4.064h-10.76V352h-4.063v-11.775H106v-4.064h11.177V326h4.064v10.161z" fill="#EFC652" fill-rule="nonzero"/>
      <path d="M931.24 159.161H942v4.064h-10.76V175h-4.063v-11.775H916v-4.064h11.177V149h4.064v10.161z" fill="#79C257" fill-rule="nonzero"/>
      <path stroke="#FBD84D" stroke-width="4" d="M102 428.5L89.5 441 77 428.5 89.5 416z"/>
      <path fill="#FBD84D" d="M1056 339.5l-4.114 2.163.785-4.581-3.328-3.245 4.6-.669L1056 329l2.057 4.168 4.6.669-3.328 3.245.785 4.581z"/>
      <path fill="#E34034" d="M70.5 498.925L64.629 502l1.121-6.512-4.75-4.613 6.564-.95L70.5 484l2.936 5.925 6.564.95-4.75 4.613L76.371 502z"/>
      <circle fill="#79C257" cx="408" cy="6" r="6"/>
      <path fill="#1CAAEC" d="M396.5 334.925L390.629 338l1.121-6.512-4.75-4.613 6.564-.95L396.5 320l2.936 5.925 6.564.95-4.75 4.613 1.121 6.512z"/>
    </g>
  </g>
</svg>
