<?xml version="1.0" encoding="utf-8"?>
<!-- Generator: Adobe Illustrator 16.0.0, SVG Export Plug-In . SVG Version: 6.00 Build 0)  -->
<!DOCTYPE svg PUBLIC "-//W3C//DTD SVG 1.1//EN" "http://www.w3.org/Graphics/SVG/1.1/DTD/svg11.dtd">
<svg version="1.1" id="Layer_1" xmlns="http://www.w3.org/2000/svg" xmlns:xlink="http://www.w3.org/1999/xlink" x="0px" y="0px"
	 width="93px" height="39px" viewBox="0 0 93 39" enable-background="new 0 0 93 39" xml:space="preserve">
<circle fill="#88BA28" cx="13.5" cy="34.5" r="4.5"/>
<path fill="#E34034" d="M60,25.85c4.059-0.832,6.675-4.798,5.843-8.857c-0.604-2.941-2.902-5.239-5.843-5.843V8c0-1.104,0.896-2,2-2
	h23c1.104,0,2,0.896,2,2v23c0,1.104-0.896,2-2,2H62c-1.104,0-2-0.896-2-2V25.85z"/>
<circle fill="#E34034" cx="88.5" cy="18.5" r="4.5"/>
<circle fill="#E34034" cx="73.5" cy="34.5" r="4.5"/>
<path fill="#F2AD29" d="M30,25.85c4.059-0.832,6.675-4.798,5.843-8.857c-0.604-2.941-2.902-5.239-5.843-5.843V8c0-1.104,0.896-2,2-2
	h23c1.104,0,2,0.896,2,2v23c0,1.104-0.896,2-2,2H32c-1.104,0-2-0.896-2-2V25.85z"/>
<circle fill="#F2AD29" cx="58.5" cy="18.5" r="4.5"/>
<circle fill="#F2AD29" cx="43.5" cy="4.5" r="4.5"/>
<path fill="#88BA28" d="M2,6h23c1.104,0,2,0.896,2,2v23c0,1.104-0.896,2-2,2H2c-1.104,0-2-0.896-2-2V8C0,6.896,0.896,6,2,6z"/>
<circle fill="#88BA28" cx="28.5" cy="18.5" r="4.5"/>
<path fill="#FFFFFF" d="M9.171,24l3.159-9.295h2.392L17.881,24h-2.34l-0.572-1.95H12.07L11.511,24H9.171z M12.603,20.23h1.833
	l-0.52-1.808c-0.169-0.585-0.377-1.599-0.377-1.599h-0.026c0,0-0.208,1.014-0.377,1.599L12.603,20.23z M41.295,24v-9.295h3.42
	c1.858,0,3.158,0.832,3.158,2.431c0,0.78-0.377,1.573-1.078,1.976v0.026c1.066,0.325,1.456,1.274,1.456,2.092
	c0,2.028-1.69,2.77-3.536,2.77H41.295z M43.571,18.306h1.17c0.572,0,0.819-0.416,0.819-0.858c0-0.429-0.248-0.793-0.858-0.793H43.57
	L43.571,18.306L43.571,18.306z M43.571,22.05h1.364c0.663,0,0.988-0.454,0.988-0.975s-0.312-0.949-0.974-0.949H43.57L43.571,22.05
	L43.571,22.05z M69.866,19.333c0,2.756,1.885,4.823,4.875,4.823c1.703,0,2.925-0.715,3.744-1.561l-1.17-1.664
	c-0.637,0.637-1.547,1.145-2.47,1.145c-1.794,0-2.626-1.417-2.626-2.795c0-1.339,0.767-2.652,2.626-2.652
	c0.832,0,1.729,0.429,2.327,0.949l1.053-1.716c-0.91-0.897-2.236-1.313-3.484-1.313C71.868,14.549,69.866,16.629,69.866,19.333z"/>
</svg>
